<mxfile host="65bd71144e">
    <diagram id="infrastructure" name="ChangeDetection.io Infrastructure">
        <mxGraphModel dx="2392" dy="957" grid="1" gridSize="10" guides="1" tooltips="1" connect="1" arrows="1" fold="1" page="1" pageScale="1" pageWidth="1100" pageHeight="850" math="0" shadow="0" adaptiveColors="simple">
            <root>
                <mxCell id="0"/>
                <mxCell id="1" parent="0"/>
                <mxCell id="cloud" value="AWS Cloud" style="points=[[0,0],[0.25,0],[0.5,0],[0.75,0],[1,0],[1,0.25],[1,0.5],[1,0.75],[1,1],[0.75,1],[0.5,1],[0.25,1],[0,1],[0,0.75],[0,0.5],[0,0.25]];outlineConnect=0;gradientColor=none;html=1;whiteSpace=wrap;fontSize=12;fontStyle=0;container=1;pointerEvents=0;collapsible=0;recursiveResize=0;shape=mxgraph.aws4.group;grIcon=mxgraph.aws4.group_aws_cloud;strokeColor=#232F3E;fillColor=none;verticalAlign=top;align=left;spacingLeft=30;fontColor=#232F3E;dashed=0;" parent="1" vertex="1">
                    <mxGeometry x="50" y="50" width="1000" height="750" as="geometry"/>
                </mxCell>
                <mxCell id="vpc" value="VPC (10.0.0.0/16)" style="points=[[0,0],[0.25,0],[0.5,0],[0.75,0],[1,0],[1,0.25],[1,0.5],[1,0.75],[1,1],[0.75,1],[0.5,1],[0.25,1],[0,1],[0,0.75],[0,0.5],[0,0.25]];outlineConnect=0;gradientColor=none;html=1;whiteSpace=wrap;fontSize=12;fontStyle=0;container=1;pointerEvents=0;collapsible=0;recursiveResize=0;shape=mxgraph.aws4.group;grIcon=mxgraph.aws4.group_vpc;strokeColor=#248814;fillColor=none;verticalAlign=top;align=left;spacingLeft=30;fontColor=#AAB7B8;dashed=0;" parent="cloud" vertex="1">
                    <mxGeometry x="50" y="60" width="900" height="640" as="geometry"/>
                </mxCell>
                <mxCell id="subnet1" value="Public Subnet 1&#xa;10.0.1.0/24" style="points=[[0,0],[0.25,0],[0.5,0],[0.75,0],[1,0],[1,0.25],[1,0.5],[1,0.75],[1,1],[0.75,1],[0.5,1],[0.25,1],[0,1],[0,0.75],[0,0.5],[0,0.25]];outlineConnect=0;gradientColor=none;html=1;whiteSpace=wrap;fontSize=12;fontStyle=0;container=1;pointerEvents=0;collapsible=0;recursiveResize=0;shape=mxgraph.aws4.group;grIcon=mxgraph.aws4.group_security_group;grStroke=0;strokeColor=#248814;fillColor=#E9F3E6;verticalAlign=top;align=left;spacingLeft=30;fontColor=#248814;dashed=0;" parent="vpc" vertex="1">
                    <mxGeometry x="50" y="50" width="350" height="550" as="geometry"/>
                </mxCell>
                <mxCell id="ecs1" value="ECS Task" style="outlineConnect=0;dashed=0;verticalLabelPosition=bottom;verticalAlign=top;align=center;html=1;shape=mxgraph.aws3.ecs;fillColor=#F58534;gradientColor=none;" parent="subnet1" vertex="1">
                    <mxGeometry x="150" y="180" width="50" height="50" as="geometry"/>
                </mxCell>
                <mxCell id="ecssg1" value="ECS Security Group&#xa;(Inbound from ALB)" style="fillColor=none;strokeColor=#DD3522;verticalAlign=top;fontStyle=0;fontColor=#DD3522;whiteSpace=wrap;html=1;" parent="subnet1" vertex="1">
                    <mxGeometry x="110" y="160" width="130" height="90" as="geometry"/>
                </mxCell>
                <mxCell id="efsmount1" value="EFS Mount Target" style="outlineConnect=0;dashed=0;verticalLabelPosition=bottom;verticalAlign=top;align=center;html=1;shape=mxgraph.aws3.mount_target;fillColor=#E05243;gradientColor=none;" parent="subnet1" vertex="1">
                    <mxGeometry x="150" y="350" width="50" height="50" as="geometry"/>
                </mxCell>
                <mxCell id="efssg1" value="EFS Security Group&#xa;(NFS from ECS)" style="fillColor=none;strokeColor=#DD3522;verticalAlign=top;fontStyle=0;fontColor=#DD3522;whiteSpace=wrap;html=1;" parent="subnet1" vertex="1">
                    <mxGeometry x="110" y="330" width="130" height="90" as="geometry"/>
                </mxCell>
                <mxCell id="subnet2" value="Public Subnet 2&#xa;10.0.2.0/24" style="points=[[0,0],[0.25,0],[0.5,0],[0.75,0],[1,0],[1,0.25],[1,0.5],[1,0.75],[1,1],[0.75,1],[0.5,1],[0.25,1],[0,1],[0,0.75],[0,0.5],[0,0.25]];outlineConnect=0;gradientColor=none;html=1;whiteSpace=wrap;fontSize=12;fontStyle=0;container=1;pointerEvents=0;collapsible=0;recursiveResize=0;shape=mxgraph.aws4.group;grIcon=mxgraph.aws4.group_security_group;grStroke=0;strokeColor=#248814;fillColor=#E9F3E6;verticalAlign=top;align=left;spacingLeft=30;fontColor=#248814;dashed=0;" parent="vpc" vertex="1">
                    <mxGeometry x="500" y="50" width="350" height="550" as="geometry"/>
                </mxCell>
                <mxCell id="ecs2" value="ECS Task" style="outlineConnect=0;dashed=0;verticalLabelPosition=bottom;verticalAlign=top;align=center;html=1;shape=mxgraph.aws3.ecs;fillColor=#F58534;gradientColor=none;" parent="subnet2" vertex="1">
                    <mxGeometry x="150" y="180" width="50" height="50" as="geometry"/>
                </mxCell>
                <mxCell id="ecssg2" value="ECS Security Group&#xa;(Inbound from ALB)" style="fillColor=none;strokeColor=#DD3522;verticalAlign=top;fontStyle=0;fontColor=#DD3522;whiteSpace=wrap;html=1;" parent="subnet2" vertex="1">
                    <mxGeometry x="110" y="160" width="130" height="90" as="geometry"/>
                </mxCell>
                <mxCell id="efsmount2" value="EFS Mount Target" style="outlineConnect=0;dashed=0;verticalLabelPosition=bottom;verticalAlign=top;align=center;html=1;shape=mxgraph.aws3.mount_target;fillColor=#E05243;gradientColor=none;" parent="subnet2" vertex="1">
                    <mxGeometry x="150" y="350" width="50" height="50" as="geometry"/>
                </mxCell>
                <mxCell id="efssg2" value="EFS Security Group&#xa;(NFS from ECS)" style="fillColor=none;strokeColor=#DD3522;verticalAlign=top;fontStyle=0;fontColor=#DD3522;whiteSpace=wrap;html=1;" parent="subnet2" vertex="1">
                    <mxGeometry x="110" y="330" width="130" height="90" as="geometry"/>
                </mxCell>
                <mxCell id="igw" value="Internet Gateway" style="outlineConnect=0;dashed=0;verticalLabelPosition=bottom;verticalAlign=top;align=center;html=1;shape=mxgraph.aws3.internet_gateway;fillColor=#F58534;gradientColor=none;" parent="vpc" vertex="1">
                    <mxGeometry x="425" y="-20" width="50" height="50" as="geometry"/>
                </mxCell>
                <mxCell id="alb" value="Application Load Balancer" style="outlineConnect=0;dashed=0;verticalLabelPosition=bottom;verticalAlign=top;align=center;html=1;shape=mxgraph.aws3.application_load_balancer;fillColor=#F58536;gradientColor=none;" parent="vpc" vertex="1">
                    <mxGeometry x="425" y="120" width="50" height="50" as="geometry"/>
                </mxCell>
                <mxCell id="albsg" value="ALB Security Group&#xa;(Port 5000 from whitelisted IPs)" style="fillColor=none;strokeColor=#DD3522;verticalAlign=top;fontStyle=0;fontColor=#DD3522;whiteSpace=wrap;html=1;" parent="vpc" vertex="1">
                    <mxGeometry x="385" y="100" width="130" height="90" as="geometry"/>
                </mxCell>
                <mxCell id="efs" value="EFS File System" style="outlineConnect=0;dashed=0;verticalLabelPosition=bottom;verticalAlign=top;align=center;html=1;shape=mxgraph.aws3.efs;fillColor=#E05243;gradientColor=none;" parent="vpc" vertex="1">
                    <mxGeometry x="425" y="350" width="50" height="60" as="geometry"/>
                </mxCell>
                <mxCell id="efsap" value="EFS Access Point" style="outlineConnect=0;dashed=0;verticalLabelPosition=bottom;verticalAlign=top;align=center;html=1;shape=mxgraph.aws3.efs_ap;fillColor=#E05243;gradientColor=none;" parent="vpc" vertex="1">
                    <mxGeometry x="425" y="470" width="50" height="50" as="geometry"/>
                </mxCell>
                <mxCell id="cw" value="CloudWatch Logs, Alarms, Dashboard" style="outlineConnect=0;dashed=0;verticalLabelPosition=bottom;verticalAlign=top;align=center;html=1;shape=mxgraph.aws3.cloudwatch;fillColor=#759C3E;gradientColor=none;" parent="vpc" vertex="1">
                    <mxGeometry x="425" y="570" width="50" height="50" as="geometry"/>
                </mxCell>
                <mxCell id="backup" value="AWS Backup" style="outlineConnect=0;dashed=0;verticalLabelPosition=bottom;verticalAlign=top;align=center;html=1;shape=mxgraph.aws3.backup;fillColor=#3F8624;gradientColor=none;" parent="cloud" vertex="1">
                    <mxGeometry x="25" y="350" width="50" height="50" as="geometry"/>
                </mxCell>
                <mxCell id="iam" value="IAM Roles&#xa;(Execution, Task, Backup)" style="outlineConnect=0;dashed=0;verticalLabelPosition=bottom;verticalAlign=top;align=center;html=1;shape=mxgraph.aws3.iam;fillColor=#759C3E;gradientColor=none;" parent="cloud" vertex="1">
                    <mxGeometry x="25" y="200" width="50" height="50" as="geometry"/>
                </mxCell>
                <mxCell id="users" value="Admin (IP whitelist)" style="outlineConnect=0;dashed=0;verticalLabelPosition=bottom;verticalAlign=top;align=center;html=1;shape=mxgraph.aws3.users;fillColor=#D2D3D3;gradientColor=none;" parent="1" vertex="1">
                    <mxGeometry x="20" y="130" width="50" height="50" as="geometry"/>
                </mxCell>
                <mxCell id="conn1" value="" style="endArrow=classic;html=1;rounded=0;edgeStyle=orthogonalEdgeStyle;" parent="1" source="users" target="alb" edge="1">
                    <mxGeometry width="50" height="50" relative="1" as="geometry"/>
                </mxCell>
                <mxCell id="conn2" value="" style="endArrow=classic;startArrow=classic;html=1;rounded=0;" parent="1" source="vpc" target="igw" edge="1">
                    <mxGeometry width="50" height="50" relative="1" as="geometry"/>
                </mxCell>
                <mxCell id="conn3" value="" style="endArrow=classic;html=1;rounded=0;edgeStyle=orthogonalEdgeStyle;" parent="1" source="alb" target="ecs1" edge="1">
                    <mxGeometry width="50" height="50" relative="1" as="geometry"/>
                </mxCell>
                <mxCell id="conn4" value="" style="endArrow=classic;html=1;rounded=0;edgeStyle=orthogonalEdgeStyle;" parent="1" source="alb" target="ecs2" edge="1">
                    <mxGeometry width="50" height="50" relative="1" as="geometry"/>
                </mxCell>
                <mxCell id="conn5" value="" style="endArrow=classic;startArrow=classic;html=1;rounded=0;edgeStyle=orthogonalEdgeStyle;" parent="1" source="ecs1" target="efsmount1" edge="1">
                    <mxGeometry width="50" height="50" relative="1" as="geometry"/>
                </mxCell>
                <mxCell id="conn6" value="" style="endArrow=classic;startArrow=classic;html=1;rounded=0;edgeStyle=orthogonalEdgeStyle;" parent="1" source="ecs2" target="efsmount2" edge="1">
                    <mxGeometry width="50" height="50" relative="1" as="geometry"/>
                </mxCell>
                <mxCell id="conn7" value="" style="endArrow=classic;startArrow=classic;html=1;rounded=0;edgeStyle=orthogonalEdgeStyle;" parent="1" source="efsmount1" target="efs" edge="1">
                    <mxGeometry width="50" height="50" relative="1" as="geometry"/>
                </mxCell>
                <mxCell id="conn8" value="" style="endArrow=classic;startArrow=classic;html=1;rounded=0;edgeStyle=orthogonalEdgeStyle;" parent="1" source="efsmount2" target="efs" edge="1">
                    <mxGeometry width="50" height="50" relative="1" as="geometry"/>
                </mxCell>
                <mxCell id="conn9" value="" style="endArrow=classic;html=1;rounded=0;edgeStyle=orthogonalEdgeStyle;" parent="1" source="efs" target="efsap" edge="1">
                    <mxGeometry width="50" height="50" relative="1" as="geometry"/>
                </mxCell>
                <mxCell id="conn10" value="" style="endArrow=classic;html=1;rounded=0;edgeStyle=orthogonalEdgeStyle;dashed=1;" parent="1" source="ecs1" target="cw" edge="1">
                    <mxGeometry width="50" height="50" relative="1" as="geometry"/>
                </mxCell>
                <mxCell id="conn11" value="" style="endArrow=classic;html=1;rounded=0;edgeStyle=orthogonalEdgeStyle;dashed=1;" parent="1" source="ecs2" target="cw" edge="1">
                    <mxGeometry width="50" height="50" relative="1" as="geometry"/>
                </mxCell>
                <mxCell id="conn12" value="" style="endArrow=classic;html=1;rounded=0;edgeStyle=orthogonalEdgeStyle;dashed=1;" parent="1" source="efs" target="backup" edge="1">
                    <mxGeometry width="50" height="50" relative="1" as="geometry"/>
                </mxCell>
                <mxCell id="conn13" value="" style="endArrow=classic;html=1;rounded=0;edgeStyle=orthogonalEdgeStyle;dashed=1;" parent="1" source="iam" target="ecs1" edge="1">
                    <mxGeometry width="50" height="50" relative="1" as="geometry"/>
                </mxCell>
                <mxCell id="conn14" value="" style="endArrow=classic;html=1;rounded=0;edgeStyle=orthogonalEdgeStyle;dashed=1;" parent="1" source="iam" target="backup" edge="1">
                    <mxGeometry width="50" height="50" relative="1" as="geometry"/>
                </mxCell>
            </root>
        </mxGraphModel>
    </diagram>
</mxfile>